<svg width="151" height="75" viewBox="0 0 151 75" fill="none" xmlns="http://www.w3.org/2000/svg">
<path fill-rule="evenodd" clip-rule="evenodd" d="M47.434 42.1172C47.434 53.4178 38.159 62.58 26.717 62.58C15.275 62.579 6 53.4178 6 42.1172" fill="#2A6DFF"/>
<path fill-rule="evenodd" clip-rule="evenodd" d="M43.0062 40.3662C40.2662 49.3121 30.7032 54.3713 21.6462 51.6659C12.5882 48.9585 7.46623 39.5118 10.2062 30.5669" fill="#FED4C4"/>
<path fill-rule="evenodd" clip-rule="evenodd" d="M42.3781 42.1172C39.7921 48.1562 33.7381 52.3945 26.6811 52.3945C19.6891 52.3945 13.6811 48.2332 11.0562 42.2821" fill="#FFFDF7"/>
<path fill-rule="evenodd" clip-rule="evenodd" d="M71.0498 62.5942H116.046V10.8774H71.0498V62.5942Z" fill="#85E5C6"/>
<path fill-rule="evenodd" clip-rule="evenodd" d="M134.12 45.6182L139.849 39.9595H92.2427L97.9717 45.6182H134.12Z" fill="#FFFDF7"/>
<path fill-rule="evenodd" clip-rule="evenodd" d="M134.12 51.2769L139.849 45.6182H92.2427L97.9717 51.2769H134.12Z" fill="#FED4C4"/>
<path fill-rule="evenodd" clip-rule="evenodd" d="M134.12 56.9356L139.849 51.2769H92.2427L97.9717 56.9356H134.12Z" fill="#FFFDF7"/>
<path fill-rule="evenodd" clip-rule="evenodd" d="M134.12 62.5943L139.849 56.9355H92.2427L97.9717 62.5943H134.12Z" fill="#2A6DFF"/>
<path fill-rule="evenodd" clip-rule="evenodd" d="M118.477 45.6182H131.291V39.9604H118.477V45.6182ZM118.477 56.9257H131.291V51.267H118.477V56.9257Z" fill="#EDEDED"/>
<path fill-rule="evenodd" clip-rule="evenodd" d="M118.477 62.5743H131.291V56.9165H118.477V62.5743Z" fill="#1F56CE"/>
<path fill-rule="evenodd" clip-rule="evenodd" d="M118.477 51.2769H131.291V45.6182H118.477V51.2769Z" fill="#FFC0A8"/>
<path fill-rule="evenodd" clip-rule="evenodd" d="M33.2788 16.4482H105.672V66.1915H33.2788V16.4482Z" fill="#FFFDF7"/>
<path fill-rule="evenodd" clip-rule="evenodd" d="M35.377 18.5205H103.574V64.1183H35.377V18.5205Z" fill="#357471"/>
<rect x="81.2744" y="35.0161" width="2.05731" height="10.9575" fill="#FFFDF7"/>
<path d="M89.8423 38.178L88.0152 42.8227L85.891 38.178H83.6782L86.9889 45.44L86.6157 46.3907C86.5881 46.4935 86.5295 46.5857 86.4477 46.6549C86.3322 46.7062 86.2053 46.7273 86.0792 46.7163H84.3065V48.5994H86.2891C86.5855 48.6055 86.8811 48.5677 87.1661 48.4873C87.434 48.4045 87.676 48.2554 87.869 48.0541C88.084 47.8167 88.2532 47.5423 88.3682 47.2447L92.0023 38.1719L89.8423 38.178Z" fill="#FFFDF7"/>
<path d="M49.0371 36.2127V38.1648H47V40.0249H49.0371V45.9736H51.0944V40.0249H53.0164V38.1648H51.1037V36.9177C51.1037 36.748 51.2429 36.6105 51.4147 36.6105H53.2698V34.583H50.6947C50.2558 34.581 49.8342 34.7518 49.5231 35.0576C49.212 35.3634 49.0371 35.7791 49.0371 36.2127Z" fill="#FFFDF7"/>
<path d="M68.7338 40.0507C68.9503 39.9093 69.207 39.8404 69.4662 39.8541H69.6092C69.8798 39.836 70.1463 39.9268 70.3479 40.106C70.501 40.2541 70.6046 40.4448 70.6449 40.6528H72.7177C72.7229 39.9318 72.4108 39.2441 71.8625 38.7682C71.3042 38.2813 70.5174 38.0355 69.5299 38.0355C68.7646 38.0144 68.0136 38.2433 67.3934 38.6868C66.7845 39.1206 66.4346 39.8256 66.4603 40.5667C66.4603 41.8293 67.2627 42.6264 68.8442 42.9367L69.8907 43.1348C70.5951 43.2777 70.5951 43.5818 70.5951 43.7123C70.595 43.873 70.507 44.021 70.365 44.0994C70.1404 44.2384 69.8787 44.3074 69.6139 44.2975H69.4708C69.1557 44.3114 68.8446 44.2235 68.5845 44.0472C68.4049 43.9199 68.2845 43.7268 68.2502 43.5111H66.1758V43.5541C66.2207 44.2623 66.5532 44.9225 67.0979 45.385C67.6639 45.8703 68.4601 46.1161 69.4631 46.1161C70.3712 46.1161 71.1285 45.8934 71.7163 45.4572C72.3117 45.0413 72.6609 44.3619 72.6493 43.6417C72.6493 42.009 71.4177 41.4299 70.3852 41.2303L69.2469 41.0014C68.5145 40.857 68.5145 40.5545 68.5145 40.4254C68.5156 40.2711 68.5989 40.1287 68.7338 40.0507Z" fill="#FFFDF7"/>
<path fill-rule="evenodd" clip-rule="evenodd" d="M62.2467 38.019C62.938 37.9999 63.6202 38.1775 64.2123 38.5304C64.7517 38.8711 65.1778 39.3609 65.4376 39.9389C65.7204 40.5809 65.8604 41.2755 65.8481 41.9755C65.8481 42.1261 65.8388 42.3626 65.8186 42.6959V42.7681H60.5984C60.6265 43.0479 60.7208 43.3173 60.8736 43.5545C61.0288 43.799 61.2424 44.002 61.4956 44.1458C61.7278 44.2818 61.9924 44.3544 62.2623 44.3562H62.3913C62.6966 44.3685 62.997 44.278 63.2435 44.0997C63.4407 43.9504 63.5854 43.7435 63.6571 43.5084H65.8186C65.6987 43.9985 65.4745 44.4577 65.1608 44.8554C64.8381 45.2545 64.4225 45.5707 63.9495 45.777C63.4134 46.0062 62.8339 46.1194 62.2498 46.1088C61.5955 46.1127 60.9518 45.9458 60.3838 45.6249C59.8008 45.2914 59.3233 44.8042 59.0045 44.218C58.6505 43.5561 58.4728 42.8161 58.4882 42.0677C58.4763 41.3481 58.6289 40.6352 58.9345 39.9819C59.2166 39.3851 59.6696 38.8831 60.2376 38.5381C60.845 38.183 61.5411 38.0031 62.2467 38.019ZM60.8221 40.4237C60.6933 40.6233 60.6164 40.8513 60.5982 41.0873H63.7455C63.7267 40.8514 63.6498 40.6236 63.5216 40.4237C63.3866 40.2181 63.1981 40.052 62.9758 39.943C62.7444 39.8298 62.4892 39.7725 62.231 39.7756H62.1112C61.8531 39.7726 61.5978 39.83 61.3664 39.943C61.1442 40.0516 60.9561 40.2178 60.8221 40.4237Z" fill="#FFFDF7"/>
<path d="M77.7682 38.0097C77.2789 38.0047 76.7966 38.1253 76.3687 38.3599C75.9566 38.5824 75.6116 38.9089 75.3689 39.306V35.0161H73.3193V45.9736H75.3735V41.633C75.3701 41.2878 75.4495 40.9467 75.6052 40.6377C75.7475 40.349 75.9615 40.1006 76.2272 39.9158C76.4792 39.7405 76.7805 39.6476 77.0887 39.6501H77.2115C77.5661 39.6312 77.9087 39.7793 78.1352 40.0494C78.355 40.3167 78.4644 40.7022 78.4633 41.206V45.9674H80.5175V40.9771C80.5175 40.0771 80.2874 39.3572 79.8271 38.8176C79.3668 38.278 78.6805 38.0087 77.7682 38.0097Z" fill="#FFFDF7"/>
<path d="M56.6238 38.5598C56.2232 38.8601 55.9336 39.2821 55.7996 39.7609V38.1559H53.7563V45.9738H55.7996V41.9389C55.7996 41.2764 55.9593 40.7869 56.2786 40.4705C56.5979 40.1541 57.0934 39.9964 57.7652 39.9975H58.4789V38.1313H58.0793C57.5598 38.1136 57.0487 38.2641 56.6238 38.5598Z" fill="#FFFDF7"/>
<path d="M93.3192 39.8747C93.1184 39.8747 92.932 39.8242 92.7601 39.7233C92.5883 39.6225 92.4519 39.4861 92.351 39.3142C92.2501 39.1423 92.1997 38.956 92.1997 38.7551C92.1997 38.5534 92.2501 38.367 92.351 38.1961C92.4519 38.0242 92.5883 37.8878 92.7601 37.7869C92.932 37.6861 93.1184 37.6356 93.3192 37.6356C93.521 37.6356 93.7078 37.6861 93.8797 37.7869C94.0515 37.8869 94.1875 38.0228 94.2874 38.1947C94.3883 38.3666 94.4387 38.5534 94.4387 38.7551C94.4387 38.956 94.3883 39.1423 94.2874 39.3142C94.1865 39.4861 94.0501 39.6225 93.8783 39.7233C93.7073 39.8242 93.521 39.8747 93.3192 39.8747ZM93.3192 39.6673C93.4817 39.6673 93.6321 39.6267 93.7704 39.5454C93.9096 39.4632 94.0198 39.352 94.1011 39.2119C94.1823 39.0718 94.223 38.9195 94.223 38.7551C94.223 38.5907 94.1823 38.4389 94.1011 38.2998C94.0198 38.1596 93.9096 38.0485 93.7704 37.9663C93.6321 37.8841 93.4817 37.843 93.3192 37.843C93.1567 37.843 93.0058 37.8841 92.8666 37.9663C92.7284 38.0485 92.6186 38.1596 92.5374 38.2998C92.4561 38.4389 92.4155 38.5907 92.4155 38.7551C92.4155 38.9195 92.4561 39.0718 92.5374 39.2119C92.6186 39.352 92.7284 39.4632 92.8666 39.5454C93.0058 39.6267 93.1567 39.6673 93.3192 39.6673ZM93.4201 38.1989C93.4939 38.1989 93.5574 38.212 93.6106 38.2381C93.6648 38.2633 93.7059 38.2984 93.734 38.3432C93.762 38.388 93.776 38.4394 93.776 38.4973C93.776 38.5711 93.7545 38.6314 93.7115 38.6781C93.6695 38.7238 93.6144 38.7542 93.5462 38.7691C93.62 38.7691 93.6742 38.7818 93.7087 38.807C93.7433 38.8313 93.7606 38.8742 93.7606 38.9359V39.2778H93.5462V39.0017C93.5462 38.9588 93.535 38.927 93.5126 38.9065C93.4901 38.8859 93.4547 38.8756 93.4061 38.8756H93.1497V39.2778H92.9353V38.1989H93.4201ZM93.3514 38.6893C93.4178 38.6893 93.4691 38.6767 93.5056 38.6515C93.542 38.6253 93.5602 38.5865 93.5602 38.5352C93.5602 38.4856 93.5434 38.4506 93.5098 38.4301C93.4761 38.4095 93.4224 38.3992 93.3486 38.3992H93.1497V38.6893H93.3514Z" fill="#FFFDF7"/>
<path d="M6 1C6 1 6.19623 5.93866 11 5.93866C11 5.93866 6 5.65911 6 10.8773C6 10.8773 6.02642 5.93866 1 5.93866C1 5.93866 5.82642 5.73739 6 1Z" stroke="#357471" stroke-width="2" stroke-miterlimit="10"/>
<path d="M145 64.2148C145 64.2148 145.196 69.1535 150 69.1535C150 69.1535 145 68.874 145 74.0922C145 74.0922 145.026 69.1535 140 69.1535C140 69.1535 144.826 68.9522 145 64.2148Z" stroke="#357471" stroke-width="2" stroke-miterlimit="10"/>
</svg>
